HIERARCHY
ROOT Hips
{
	OFFSET 0.000000 0.000000 0.000000
	CHANNELS 6 Xposition Yposition Zposition Xrotation Yrotation Zrotation
	JOINT LeftUpLeg_virtual
	{
		OFFSET 0.000000 0.000000 0.000000
		CHANNELS 3 Xrotation Yrotation Zrotation
		JOINT LeftUpLeg
		{
			OFFSET 11.394100 -6.187798 -0.413800
			CHANNELS 3 Xrotation Yrotation Zrotation
			JOINT LeftLeg
			{
				OFFSET 0.430247 -32.302673 3.732800
				CHANNELS 3 Xrotation Yrotation Zrotation
				JOINT LeftFoot
				{
					OFFSET -0.430247 -48.264931 -6.423300
					CHANNELS 3 Xrotation Yrotation Zrotation
					JOINT LeftToeBase
					{
						OFFSET 4.230900 -16.068199 23.438400
						CHANNELS 3 Xrotation Yrotation Zrotation
						JOINT LeftToe_End
						{
							OFFSET 4.510700 0.695400 19.974600
							CHANNELS 3 Xrotation Yrotation Zrotation
							End Site
							{
								OFFSET 0 0 0
							}
						}
					}
				}
			}
		}
	}
	JOINT RightUpLeg_virtual
	{
		OFFSET 0.000000 0.000000 0.000000
		CHANNELS 3 Xrotation Yrotation Zrotation
		JOINT RightUpLeg
		{
			OFFSET -11.333700 -6.187798 -0.413800
			CHANNELS 3 Xrotation Yrotation Zrotation
			JOINT RightLeg
			{
				OFFSET -0.430392 -32.302628 3.733000
				CHANNELS 3 Xrotation Yrotation Zrotation
				JOINT RightFoot
				{
					OFFSET 0.430392 -48.264973 -6.423500
					CHANNELS 3 Xrotation Yrotation Zrotation
					JOINT RightToeBase
					{
						OFFSET -4.230900 -16.068199 23.438400
						CHANNELS 3 Xrotation Yrotation Zrotation
						JOINT RightToe_End
						{
							OFFSET -4.510700 0.695400 19.974600
							CHANNELS 3 Xrotation Yrotation Zrotation
							End Site
							{
								OFFSET 0 0 0
							}
						}
					}
				}
			}
		}
	}
	JOINT Spine_virtual
	{
		OFFSET 0.000000 0.000000 0.000000
		CHANNELS 3 Xrotation Yrotation Zrotation
		JOINT Spine
		{
			OFFSET -0.002400 12.777504 0.315300
			CHANNELS 3 Xrotation Yrotation Zrotation
			JOINT Spine1
			{
				OFFSET -0.002067 5.816869 0.032633
				CHANNELS 3 Xrotation Yrotation Zrotation
				JOINT Spine1_split
				{
					OFFSET -0.002067 5.816869 0.032633
					CHANNELS 3 Xrotation Yrotation Zrotation
					JOINT Spine2
					{
						OFFSET -0.002067 5.816869 0.032633
						CHANNELS 3 Xrotation Yrotation Zrotation
						JOINT Neck_virtual
						{
							OFFSET 0.000000 0.000000 0.000000
							CHANNELS 3 Xrotation Yrotation Zrotation
							JOINT Neck
							{
								OFFSET -0.003700 21.199493 -0.826900
								CHANNELS 3 Xrotation Yrotation Zrotation
								JOINT Head
								{
									OFFSET 0.000000 20.442200 4.834800
									CHANNELS 3 Xrotation Yrotation Zrotation
									JOINT HeadTop_End
									{
										OFFSET 0.000000 34.668396 4.968400
										CHANNELS 3 Xrotation Yrotation Zrotation
										End Site
										{
											OFFSET 0 0 0
										}
									}
								}
							}
						}
						JOINT LeftShoulder_virtual
						{
							OFFSET 0.000000 0.000000 0.000000
							CHANNELS 3 Xrotation Yrotation Zrotation
							JOINT LeftShoulder
							{
								OFFSET 3.288150 8.794197 -1.372250
								CHANNELS 3 Xrotation Yrotation Zrotation
								JOINT LeftShoulder_split
								{
									OFFSET 3.288150 8.794197 -1.372250
									CHANNELS 3 Xrotation Yrotation Zrotation
									JOINT LeftArm
									{
										OFFSET 11.953299 -2.279007 -0.146200
										CHANNELS 3 Xrotation Yrotation Zrotation
										JOINT LeftForeArm
										{
											OFFSET 18.448900 0.000000 0.000000
											CHANNELS 3 Xrotation Yrotation Zrotation
											JOINT LeftHand
											{
												OFFSET 29.527798 0.000000 0.000000
												CHANNELS 3 Xrotation Yrotation Zrotation
												End Site
												{
													OFFSET 0 0 0
												}
											}
										}
									}
								}
							}
						}
						JOINT RightShoulder_virtual
						{
							OFFSET 0.000000 0.000000 0.000000
							CHANNELS 3 Xrotation Yrotation Zrotation
							JOINT RightShoulder
							{
								OFFSET -3.249400 8.794197 -1.372250
								CHANNELS 3 Xrotation Yrotation Zrotation
								JOINT RightShoulder_split
								{
									OFFSET -3.249400 8.794197 -1.372250
									CHANNELS 3 Xrotation Yrotation Zrotation
									JOINT RightArm
									{
										OFFSET -11.953299 -2.279007 -0.146200
										CHANNELS 3 Xrotation Yrotation Zrotation
										JOINT RightForeArm
										{
											OFFSET -18.448900 0.000000 0.000000
											CHANNELS 3 Xrotation Yrotation Zrotation
											JOINT RightHand
											{
												OFFSET -29.527802 0.000000 0.000000
												CHANNELS 3 Xrotation Yrotation Zrotation
												End Site
												{
													OFFSET 0 0 0
												}
											}
										}
									}
								}
							}
						}
					}
				}
			}
		}
	}
}
MOTION
Frames: 5
Frame Time: 0.03333333
-0.490773 98.946663 -46.292179 0.000000 0.000000 0.000000 175.094549 -67.450727 178.711886 -33.149609 9.910408 15.327542 37.259976 1.795524 -0.731971 1.045314 -3.033834 0.904040 0.780980 7.244058 -9.565164 0.000000 0.000000 0.000000 174.202704 -66.071364 177.896047 -16.870002 -11.803612 3.512581 17.338406 4.977109 -3.598419 -4.251732 2.834954 -9.287846 -0.346196 -6.971228 -0.774995 0.000000 0.000000 0.000000 172.787721 -67.182191 175.222916 4.425884 1.644275 3.253123 -3.430997 1.390241 -2.317270 0.643273 -1.339221 0.137791 0.000000 0.000000 0.000000 -5.124145 1.609165 -1.968809 1.387858 19.389312 8.103962 4.724151 26.590102 -14.871817 0.000000 0.000000 0.000000 -5.464811 2.190338 -2.221471 0.850106 0.825470 1.458110 -0.196026 -0.764133 -0.628124 12.291551 0.663413 -67.352407 7.670989 -21.367774 -7.995653 0.000000 0.000000 0.000000 -4.549064 1.869293 -2.687180 2.748021 -5.558234 17.920801 -6.295770 -1.355852 -0.873687 11.451581 32.949509 53.619891 15.236122 29.935691 -1.185702 0.000000 0.000000 0.000000 
-1.512426 99.352928 -47.977528 0.000000 0.000000 0.000000 174.551659 -61.798486 177.993555 -34.964701 3.138241 10.633407 36.588917 2.195002 0.119054 3.171364 -2.560710 0.627108 -0.295804 8.074663 -9.976346 0.000000 0.000000 0.000000 173.893761 -59.956685 177.546820 -16.387041 -9.655513 5.093865 17.195481 7.816223 -3.090908 -3.596909 2.719325 -11.462127 -0.924277 -6.750373 -1.130209 0.000000 0.000000 0.000000 173.322962 -61.341758 175.420841 4.790710 2.144633 3.017829 -3.348339 1.860896 -2.407411 0.677751 -1.133475 0.263824 0.000000 0.000000 0.000000 -5.052617 2.038559 -2.119281 1.178714 17.626862 8.110307 3.955164 24.150290 -13.702503 0.000000 0.000000 0.000000 -5.478905 2.634379 -2.295865 0.762081 0.734276 1.832157 0.035014 -0.881292 -0.579630 13.379967 1.426108 -68.860021 8.748091 -20.350812 -8.063797 0.000000 0.000000 0.000000 -4.484304 2.287683 -2.821468 2.782012 -5.950381 18.061950 -6.134390 -1.503708 -0.691073 10.381266 34.993303 53.779489 15.474685 29.135336 -1.612442 0.000000 0.000000 0.000000 
-2.680477 99.619499 -49.847942 0.000000 0.000000 0.000000 174.129307 -56.045817 177.329469 -37.441021 -2.671698 6.355449 34.430768 2.044724 1.071031 5.404939 -2.287232 -0.631737 -1.820168 8.844402 -10.350248 0.000000 0.000000 0.000000 173.940070 -53.779349 177.583621 -15.794355 -7.705977 6.647066 17.948982 10.297767 -2.590698 -3.120458 2.504734 -13.881606 -0.967481 -6.467432 -1.350109 0.000000 0.000000 0.000000 173.903173 -55.467871 175.681085 5.109201 2.602899 2.594135 -3.148440 2.232322 -2.286591 0.740722 -0.771814 0.311519 0.000000 0.000000 0.000000 -4.851492 2.391950 -2.074204 1.093702 15.587448 7.657788 2.794296 20.850476 -11.927187 0.000000 0.000000 0.000000 -5.377125 2.992610 -2.142572 0.671829 0.610526 2.104314 0.306137 -1.073775 -0.613351 14.232349 1.895033 -70.328477 9.530639 -18.506761 -8.264103 0.000000 0.000000 0.000000 -4.324465 2.610618 -2.731933 2.825226 -6.363355 17.987255 -5.905868 -1.600317 -0.447642 9.113011 37.265915 54.236787 15.524610 28.010126 -2.006451 0.000000 0.000000 0.000000 
-3.950827 99.577095 -51.817341 0.000000 0.000000 0.000000 174.059926 -50.179808 177.060537 -40.516764 -7.153897 2.907460 31.315359 1.290275 1.939888 8.324203 -2.302639 -2.779027 -2.808425 9.459236 -10.905661 0.000000 0.000000 0.000000 174.219998 -47.668143 177.814385 -15.288480 -6.008571 8.124375 19.666529 12.583602 -2.269435 -2.306560 2.246481 -16.063340 -1.413685 -6.119712 -1.774855 0.000000 0.000000 0.000000 174.594197 -49.798725 176.147232 5.426214 3.001969 2.057192 -2.842943 2.486541 -1.984982 0.922100 -0.314170 0.249883 0.000000 0.000000 0.000000 -4.526309 2.649644 -1.855473 1.196146 13.313576 6.792821 1.451459 16.841933 -9.761425 0.000000 0.000000 0.000000 -5.158771 3.255043 -1.800847 0.586945 0.536709 2.237966 0.647539 -1.400139 -0.694858 14.945943 2.202136 -71.581072 9.953437 -16.389626 -8.571871 0.000000 0.000000 0.000000 -4.072641 2.826778 -2.457143 2.877940 -6.778388 17.650834 -5.571603 -1.609526 -0.132406 7.754519 39.578938 55.016030 15.422386 26.883838 -2.403808 0.000000 0.000000 0.000000 
-5.210081 99.244186 -54.085438 0.000000 0.000000 0.000000 174.243453 -44.372440 177.082025 -44.158751 -10.185598 0.386535 27.907297 0.231798 2.511731 12.398387 -2.429858 -5.435538 -2.309290 9.800264 -11.841900 0.000000 0.000000 0.000000 174.626531 -41.839034 178.008267 -14.872399 -4.598881 9.445116 21.662440 14.799323 -2.186698 -1.021302 2.190206 -17.627279 -2.513023 -5.609952 -2.539354 0.000000 0.000000 0.000000 175.306395 -44.372546 176.708851 5.776088 3.335434 1.531165 -2.457044 2.630415 -1.578155 0.917669 0.307504 0.182147 0.000000 0.000000 0.000000 -4.128412 2.801656 -1.520557 1.437399 10.857680 5.671460 0.171555 12.391435 -7.447861 0.000000 0.000000 0.000000 -4.830878 3.427108 -1.354383 0.519543 0.577837 2.199181 1.027850 -1.892295 -0.799146 15.652336 2.443246 -72.482685 10.074786 -14.629480 -8.915150 0.000000 0.000000 0.000000 -3.735394 2.940766 -2.075121 2.944010 -7.172835 17.076556 -5.095476 -1.502693 0.173490 6.485982 41.744863 56.012776 15.214110 26.049254 -2.847874 0.000000 0.000000 0.000000 
